<?xml version="1.0"?><svg width="8660.19431" height="6920.802810000001" xmlns="http://www.w3.org/2000/svg">
 <title>cloud2</title>

 <metadata id="metadata3228">image/svg+xml</metadata>
 <g>
  <title>Layer 1</title>
  <g id="layer1">
   <g id="g6444">
    <path fill="#ffffff" fill-rule="nonzero" stroke="#007fff" stroke-width="99" stroke-miterlimit="4" stroke-dashoffset="0" d="m4580.989258,1444.39502c-877.085693,0 -1617.968018,630.416748 -1848.484131,1491.320313c-95.962646,-61.158447 -206.362061,-96.346924 -324.397949,-96.346924c-365.030518,0 -661.216553,333.827393 -661.216553,745.248291c0,4.190918 -0.061523,8.178711 0,12.352051c-109.346558,-25.249268 -223.994141,-39.526855 -342.663818,-39.526855c-723.542908,0 -1310.742935,501.15332 -1310.743179,1118.284668c0,617.131836 587.200333,1118.284668 1310.743179,1118.284668c286.575928,0 551.368164,-79.209961 767.157471,-212.45752c128.876709,434.589844 492.562012,748.54248 921.31958,748.54248c290.535156,0 551.052734,-144.176758 729.165039,-372.212402c172.792236,101.873535 375.990967,160.578125 593.268311,160.578125c295.62793,0 565.416016,-108.385742 767.888672,-286.570313c272.834473,319.149902 674.019043,521.262207 1121.510254,521.262207c548.977051,0 1028.771973,-304.444824 1286.633301,-755.954102c38.819336,6.411621 78.645508,9.881836 119.091797,9.881836c436.73291,0 790.538574,-387.11084 790.538574,-864.65332c0,-477.541504 -353.805664,-865.476563 -790.538574,-865.476563c-78.148926,0 -153.712891,13.118896 -225.032715,36.233154c-235.333496,-312.658691 -587.186523,-529.419434 -989.26709,-582.199463c-82.248047,-1056.211426 -908.292969,-1886.590576 -1914.972168,-1886.590332z" id="path5530"/>
   </g>
  </g>
 </g>
</svg>